<svg width="160" height="80" fill="none" xmlns="http://www.w3.org/2000/svg"><path d="M13.333 28.208l11.26.035a5.76 5.76 0 015.646 4.724c.553 3.04-1.023 5.632-3.467 6.33a.818.818 0 00-.195.13c2.318.666 3.702 2.2 4.091 4.497.64 3.79-1.448 6.907-5.4 7.352-.88.08-1.765.115-2.65.103l-9.293.018.008-23.189zm4.976 18.747a.666.666 0 00.195.064l4.664-.016c1.6-.078 2.557-1.062 2.605-2.516.048-1.455-.84-2.516-2.4-2.704a28.406 28.406 0 00-3.013-.08h-2.036l-.015 5.252zm-.032-9.567h4.203c.267.008.53-.008.793-.05.96-.195 1.704-.694 1.96-1.707a2.4 2.4 0 00-2.294-3.095c-.778-.04-1.56 0-2.336 0h-2.294c0 .17-.032.272-.032.373l.014 4.48-.014-.001zm84.556 14.419l-1.757-.32c-4.539-1.09-6.85-4.997-6.453-9.31.32-3.6 2.154-6.268 5.622-7.468 4.846-1.706 10.467.598 11.294 7.032.109.85.102 1.716.156 2.667H99.177c.288 1.6 1.09 2.704 2.487 3.296 2.269.96 4.395.483 6.392-.808.133-.077.227-.167.343-.25a.543.543 0 01.114 0l1.956 2.878-1.889 1.167a10.367 10.367 0 01-3.82 1.03c-.153.023-.304.06-.451.108l-1.476-.022zm4.54-10.474c.087-2.08-1.896-3.67-4.408-3.57-2.086.08-3.944 1.85-3.733 3.57h8.141zM120.8 51.807l-2.164-.444a8.195 8.195 0 01-6.035-7.29c-.288-3.297.667-6.094 3.315-8.17 4-3.155 11.893-2.44 13.46 5.021.11.536.181 1.08.211 1.627.04.578 0 1.163 0 1.831h-12.4a3.833 3.833 0 001.07 2.302c1.374 1.419 3.091 1.688 4.934 1.36a6.603 6.603 0 003.253-1.496l2 2.93c-.533.347-.995.72-1.512 1a10.578 10.578 0 01-4.155 1.215c-.17.028-.339.064-.505.11l-1.472.004zm-3.592-10.478h8.133c.107-2.017-1.832-3.618-4.264-3.573-2.157.045-4.026 1.752-3.87 3.573h.001zM38.541 51.807l-1.6-.32c-3.276-.79-5.193-3.238-5.193-6.6V34.64h4.41v9.755c0 1.381.416 2.557 1.727 3.154 1.42.64 2.878.64 4.187-.32.96-.684 1.23-1.733 1.233-2.857v-9.753h4.37v10.163c0 3.837-2.398 6.494-6.236 6.894-.187.019-.374.08-.563.133l-2.335-.002zm41.699-.48V28.224h16.061v3.724c.032.493-.153.587-.606.581-3.17-.016-6.342 0-9.512 0h-1v4.859h7.77c.486 0 .598.133.587.604v3.715h-8.38v9.621l-4.92-.001zm50.484-.01V35.205c0-.677 0-.683.703-.677l7.266.107c3.44.266 6.127 1.816 7.403 5.206 1.293 3.45.32 7.384-2.324 9.538a8.731 8.731 0 01-5.335 1.965l-7.489.032a1.54 1.54 0 01-.227-.057l.003-.002zm4.213-3.547h2.432c2.854 0 4.651-1.6 4.971-4.449.231-2.036-.872-4.066-2.631-4.794-1.544-.64-3.16-.298-4.773-.4l.001 9.643zm-78.37-9.37h-7.5v-3.779H62.6v2.133a2.277 2.277 0 01-.572 1.682l-6.693 8.448-.42.553h7.752v3.864H49.04v-3.164c0-.178.187-.368.32-.53 2.282-2.911 4.568-5.819 6.859-8.723.109-.133.186-.256.346-.498l.002.014zm7.333.017v-3.386c0-.134.019-.243.035-.4h13.493v3.024a.934.934 0 01-.263.444c-2.328 2.95-4.657 5.897-6.984 8.84l-.396.549h7.267c.405 0 .56.099.533.533v3.315H63.928v-3.237c0-.134.144-.275.24-.4l6.696-8.515.587-.757-7.551-.01z" fill="#000"/></svg>