<svg width="160" height="80" fill="none" xmlns="http://www.w3.org/2000/svg"><path d="M72.761 45.804c-.273 1.002-.546 2.459-1.82 2.732-.638.09-1.276 0-1.731-.547-.91-1.365-1.001-3.095-1.092-4.825-.183-3.643-.365-7.467.728-10.745.273-.546.82-1.092 1.457-1.092.728-.092 1.457.273 1.73.91.728 1.366.728 3.005.91 4.553.365 3.005.274 6.1-.182 9.014zm2.277-15.752c-1.457-1.821-3.734-2.55-6.01-1.912-2.185.455-3.733 2.731-4.28 4.734-1.092 3.825-1.001 8.377-.455 12.384.455 2.458 1.366 5.28 4.007 6.374 2.003.728 4.552.455 6.1-1.002 2.459-2.55 2.732-6.192 2.914-9.652.09-3.642-.091-7.102-1.73-10.107l-.546-.82zM27.963 47.26c-.273.637-.82 1.366-1.548 1.457a1.68 1.68 0 01-1.457-.455c-.82-.729-.82-1.73-1.093-2.732a43.873 43.873 0 01.182-11.473c.274-1.001.547-2.367 1.821-2.64.82-.183 1.548.364 2.004 1.092.91 2.186.91 4.826.91 7.376-.091 2.55-.091 5.099-.82 7.375zM26.05 27.957c-2.186.091-4.189 1.549-5.1 3.46-1.092 2.55-1.456 5.373-1.456 8.286.09 3.734.09 7.467 2.276 10.29 1.184 1.639 3.005 2.185 5.008 1.912 1.912-.091 3.733-1.548 4.553-3.278 1.274-2.732 1.548-5.919 1.548-9.197-.091-3.187-.274-6.373-1.73-8.923-1.184-1.639-3.005-2.64-5.1-2.55zm17.3 12.566c-1.821-1.912-4.826-2.914-5.463-5.554-.091-1.275-.273-2.914 1.092-3.643.364-.181.82-.09 1.184 0 .637.365.91 1.002 1.002 1.73.182.82.09 1.913.182 2.823h3.733c.09-1.912 0-3.733-.82-5.372a4.625 4.625 0 00-2.276-2.094c-1.73-.82-4.28-.637-5.827.637-2.095 1.73-2.641 4.553-2.095 7.102.729 2.914 3.916 4.553 6.01 6.556 1.184 1.002 1.548 2.368 1.366 3.825-.091.91-.547 1.912-1.548 2.185-.547.09-1.093 0-1.457-.364-1.184-1.275-.91-3.278-.91-5.008h-3.916c-.182 2.367 0 4.826 1.457 6.647 1.457 1.639 3.642 2.094 5.827 1.73 2.003-.365 3.825-2.095 4.28-4.007.637-2.458.182-5.372-1.821-7.193zm56.726 5.827c-.273.82-.546 1.913-1.548 2.277-.819.273-1.547-.091-2.003-.638-.637-.819-.637-1.82-.82-2.731-.546-3.551-.363-7.376 0-10.927.183-1.001.547-2.094 1.458-2.64.637-.273 1.456-.182 2.003.364 1.001 1.275 1.001 2.914 1.275 4.553.182 3.095.182 6.556-.365 9.742zm-3.004-18.302c-2.004.092-3.825 1.73-4.553 3.46-1.366 3.279-1.457 7.103-1.275 10.927.273 3.551.728 7.74 4.553 9.288 2.003.637 4.461.364 6.009-1.184 2.186-2.367 2.55-5.554 2.823-8.741.091-3.642-.091-7.285-1.457-10.38-1.001-2.277-3.46-3.825-6.1-3.37z" fill="#000" fill-opacity=".99"/><path d="M18.584 42.162H14.67c-.091 2.003 0 4.188-.91 5.827-.274.547-.911.729-1.549.638-.728-.182-1.092-1.002-1.365-1.64-.911-3.641-.911-8.103-.547-12.018.182-1.184.273-2.459 1.184-3.37a1.45 1.45 0 011.366-.181c.82.364 1.092 1.274 1.274 2.094.183 1.184.183 2.458.365 3.642h3.915c0-2.367-.273-4.735-1.457-6.647-1.184-2.094-3.642-2.914-5.918-2.367-2.732.546-4.007 3.46-4.462 5.827 0 .273-.182.546-.091.82 0 0-.091 0-.091.09-.364 2.095-.364 4.28-.273 6.374.273 3.278.364 6.556 2.276 9.106 1.457 1.82 3.824 2.185 6.01 1.548 3.46-1.275 4.097-4.917 4.28-8.195-.092-.546.09-1.093-.092-1.548zm36.057-.273l-.09.182-2.823-13.476h-5.464V51.54h3.552V35.697l2.003 9.834 1.183 6.01h2.823l3.187-15.115V51.54h3.733V28.504h-5.28L54.64 41.889zm31.323-2.55c-.82 1.002-2.185 1.002-3.46 1.002v-8.377c.091-.091 0-.182.091-.182 1.457-.091 3.005.09 3.642 1.548.91 1.639 1.002 4.37-.273 6.01zm-.638-10.835h-6.92v22.945h4.007v-8.012h2.276c1.64-.091 3.096-.547 4.28-1.821 2.276-2.368 2.458-6.283 1.366-9.288-.82-1.912-2.823-3.733-5.008-3.824zm28.865 23.036v-3.095h-4.098V28.504h-3.915V51.54h8.013zm.91-23.036h3.916V51.54h-3.916V28.504zm4.644 0v3.278h3.46V51.54h3.824V31.78h3.369v-3.277h-10.653zm14.295 13.385l1.184-8.286v-.091l1.275 8.468h-2.459v-.091zm-1.548-13.385l-3.824 23.037h3.824l1.093-6.465h3.46l1.093 6.374h3.642l-3.915-23.037h-5.373v.09zm18.211 0v14.022l-3.733-14.022h-4.371V51.54h3.278V36.972c.183.455 3.825 14.569 3.825 14.569h4.188V28.504h-3.187z" fill="#000" fill-opacity=".99"/></svg>