<svg width="80" height="80" fill="none" xmlns="http://www.w3.org/2000/svg"><g clip-path="url(#clip0_1_39)"><path d="M78.085 39.802c0 21.486-17.413 38.899-38.899 38.899C17.704 78.7.293 61.288.293 39.802.293 18.314 17.704.9 39.186.9c21.486 0 38.899 17.415 38.899 38.903zm-1.893-16.785l.155-.045c.064.265.237.39.508.39a.354.354 0 00.263-.095.372.372 0 00.098-.261c0-.136-.087-.236-.252-.309-.155-.066-.309-.122-.467-.188-.165-.092-.244-.216-.244-.382 0-.146.037-.254.127-.338a.537.537 0 01.377-.132c.142 0 .263.04.364.117a.55.55 0 01.211.316l-.143.045c-.071-.228-.214-.343-.432-.343a.38.38 0 00-.253.085c-.071.062-.093.143-.093.25 0 .066.014.124.06.166.044.05.143.104.3.162.245.096.407.176.49.257a.417.417 0 01.113.313.442.442 0 01-.159.355.623.623 0 01-.383.119c-.174 0-.312-.038-.414-.119-.098-.073-.173-.201-.226-.363zm1.708.455h-.165v-1.787h.286l.496 1.514h.008l.492-1.514h.29v1.787h-.165v-1.654l-.542 1.654h-.158l-.542-1.654v1.654z" fill="#000"/><path d="M13.741 51.514c.67-3.197 1.364-10.289 2.253-18.805l3.021-.008.211-1.333-3.066.007c.278-2.635.79-8.321 3.252-9.344.666 1.155 1.305 2.048 2.72 2.075.916.02 1.724-.388 1.74-1.387.032-1.412-2.14-1.988-3.25-2.007-2.066-.034-7.928.736-9.373 8.63l-.374 2.033-2.38.011-.216 1.342 2.4.007c-.694 6.183-2.062 18.689-2.434 20.404-.825 3.762-1.113 4.664-2.994 5.688.227.403.459.797.701 1.192 3.213-.981 6.826-3.915 7.79-8.505zM30.526 37.89c0-1.58-.11-5.324-2.423-5.324-3.417 0-3.895 6.572-3.895 8.96 0 1.54.113 5.286 2.423 5.286 3.414 0 3.895-6.572 3.895-8.921zm-11.64 4.589c0-6.06 3.962-11.31 10.538-11.31 4.042 0 6.425 1.8 6.425 5.727 0 6.06-3.963 11.319-10.539 11.319-4.04 0-6.425-1.802-6.425-5.736zm30-4.589c0-1.58-.11-5.324-2.42-5.324-3.415 0-3.897 6.572-3.897 8.96 0 1.54.113 5.286 2.423 5.286 3.42 0 3.894-6.572 3.894-8.921zm-11.641 4.59c0-6.06 3.963-11.31 10.539-11.31 4.047 0 6.428 1.8 6.428 5.727 0 6.06-3.96 11.319-10.537 11.319-4.041 0-6.43-1.802-6.43-5.736zm28.535-1.762c.876-2.272 1.177-4.368 1.655-7.785a1.677 1.677 0 00-.587-.107c-4.044 0-5.955 5.873-5.955 9.145 0 .805.185 2.753 1.358 2.753 1.618 0 3.047-2.753 3.529-4.006zm8.407 5.47c-2.313 1.11-5.134 2.023-7.083 2.023-.993 0-.956-1.575-.956-2.241 0-.771.076-1.836.256-3.89l-.075-.075c-1.32 2.648-3.893 6.207-7.2 6.207-2.637 0-3.743-2.754-3.743-5.033 0-5.765 4.556-11.756 10.91-11.756h1.32c.519-3.999.549-5.69.549-6.899 0-.404 0-.771-.44-.771-.335 0-.84.105-2.133.513l-.324-1.066c2.603-.918 5.44-1.503 7.964-1.576.33 0 .443 0 .443.55 0 3.379-2.539 20.82-2.539 22.581 0 .482 0 1.106.482 1.106.255 0 1.106-.293 2.241-.695l.329 1.022zM24.392 57.255v-4.706h1.033v.508c.412-.293.89-.595 1.445-.595.934 0 1.39.618 1.39 1.573v3.22h-1.122V54.2c0-.64-.2-.835-.577-.835-.485 0-.86.278-1.047.497v3.392h-1.122zm8.674-2.935c-.017-.65-.364-1.026-.907-1.026-.538 0-.883.376-.905 1.027h1.812zm-1.812.764c.022.975.455 1.358.982 1.358.52 0 .764-.24 1.044-.563l.816.504c-.43.67-1.066.955-1.97.955-1.221 0-1.985-.944-1.985-2.434 0-1.493.763-2.441 2.042-2.441 1.228-.015 1.913 1.03 1.913 2.159v.462h-2.842zm5.028-2.535v-1.546h1.12v1.546h.925v.907h-.924v2.663c0 .248.132.323.408.323.17 0 .35-.056.516-.097v.933c-.31.03-.582.064-.89.064-.831 0-1.155-.41-1.155-1.087v-2.8h-.647v-.906h.647zm3.427 0h1.066l.64 2.93h.015l.68-2.93h1.035l.658 2.93h.015l.678-2.93h1.06l-1.21 4.706h-1.02l-.689-2.934h-.022l-.685 2.934h-1.012l-1.21-4.706zm9.278.816c-.624 0-.917.489-.917 1.535 0 1.046.293 1.542.917 1.542.625 0 .922-.496.922-1.542s-.297-1.535-.922-1.535zm0-.903c1.28 0 2.046.952 2.046 2.438 0 1.497-.767 2.438-2.046 2.438-1.275 0-2.039-.94-2.039-2.438 0-1.486.764-2.438 2.04-2.438zm3.853 4.793v-4.706h1.026v.808h.02c.27-.564.646-.88 1.324-.895v1.181c-.06-.003-.128-.003-.203-.003-.558 0-1.047.642-1.047.755v2.86h-1.12zm4.164 0v-6.527h1.12v3.638h.034l1.388-1.817h1.283l-1.388 1.757 1.486 2.949h-1.196l-1.039-2.107-.567.655v1.452h-1.121z" fill="#fff"/></g><defs><clipPath id="clip0_1_39"><path fill="#fff" d="M0 0h80v80H0z"/></clipPath></defs></svg>