<svg version="1.0" xmlns="http://www.w3.org/2000/svg" width="682.667" height="682.667" viewBox="0 0 512 512"><path d="M193.7 129.5c-12.7 3.2-25.6 12.4-31.4 22.2-1.8 3.1-3.1 4.3-4.2 3.9-.9-.3-5.3-1.8-9.7-3.5-26.6-9.7-54.6-9-81.1 2.2-25 10.5-48.4 34.1-58.4 58.9-12.5 30.6-11.3 63.3 3.5 92.7 15.7 31.2 45.3 52.9 80.3 59.1 7.9 1.4 29.2 1.4 36.1.1 9-1.8 17.5-4.2 23.4-6.7 3.2-1.3 6.2-2.4 6.7-2.4s1.9 1.7 3.2 3.7c8.5 14.3 25 23.3 42.8 23.4 26.1.1 46.8-18.2 50.3-44.3.8-6.4 1.6-8.9 2.7-9.3.9-.2 57-15.1 124.6-33 67.7-17.9 124-33 125.2-33.6 3.3-1.8 4.8-6.2 3.3-9.9-.7-1.7-2.1-3.5-3.1-4.1-1.4-.7-249.9-66.9-251.3-66.9-.2 0-.7-3-1.1-6.8-2.2-21.2-15.3-37.8-35-44.5-7-2.4-19.7-3-26.8-1.2zm26.1 18.9c7 3.5 12.8 9.5 16 16.5 2.3 4.7 2.7 7 2.7 14.2 0 7.9-.3 9.2-3.5 15.4-2.5 5-5 8-8.7 11-5.7 4.5-7.8 8.2-6.8 11.7.4 1.3 3.5 5.2 6.9 8.9 9.7 10.2 13.2 19.4 12.4 32.8-.6 10.4-4.6 19-12.8 27.5-3.7 3.9-6.2 7.4-6.6 9.4-.6 3-.1 3.7 7 10.6 10 9.7 12 14.1 12.1 26.1 0 7.7-.4 9.8-2.6 14.5-3.3 7-9.5 13.2-16.7 16.7-4.9 2.4-6.9 2.8-14.2 2.8-7.2 0-9.3-.4-14-2.7-8-3.9-13.7-9.9-17.5-18.2-5.2-11.4-7.8-12.4-17.7-7.1-37.7 19.9-83.1 12.9-112.1-17.4-9-9.5-12.8-14.9-17.8-25.6-6.7-14.2-8.2-21.7-8.2-39.5-.1-17.9 1.6-25.7 8.3-39.9 9.8-20.4 24.7-35.3 45.1-45.1 14-6.7 21.9-8.3 39.9-8.3 18.3 0 25.5 1.6 40.9 8.9 9.8 4.7 14 5.5 16.8 3.2.9-.7 2.9-4.1 4.4-7.6 4.9-10.9 10.2-16.1 20.5-20.3 7.1-2.8 19-2.1 26.2 1.5zm142 78.6c58.9 15.6 107.2 28.6 107.2 28.9 0 .3-48.7 13.5-108.3 29.2l-108.2 28.6-2.7-4.8c-1.4-2.7-4-6.7-5.8-8.9l-3.2-4 4.8-7.1c13.5-20.4 13.1-48.5-1.1-67.9-1.9-2.6-3.5-5.1-3.5-5.5 0-.4 1.5-2.5 3.4-4.6 1.8-2.2 4.4-6 5.7-8.5 1.3-2.4 2.9-4.3 3.4-4.1.6.2 49.3 13.1 108.3 28.7z"/><path d="M101.3 180.1c-19.1 2.2-38.3 13.2-50.2 28.6-10 12.9-16.1 29.6-16.1 43.9 0 6.6.2 7.4 2.6 9.3 3.5 2.8 7.9 2.7 10.8-.2 1.8-1.8 2.4-3.9 3-9.9 1.4-15.5 7-27.4 18-38.3 10.8-10.6 21.1-15.3 38.1-17.4 6.3-.8 8.4-1.4 9.7-3.1 2.1-2.6 2.3-7.8.4-10.2-1.3-1.8-5.9-3.9-7.9-3.7-.7.1-4.4.5-8.4 1zm59.4 9.1c-.9.7-2.1 2.6-2.7 4.2-.9 2.4-.6 3.8 1.5 8.3l2.4 5.4-6.2 5.9c-7 6.5-11.8 13.8-15.5 23.8-2.2 5.8-2.6 8.4-2.6 18.7-.1 9.2.3 13.3 1.8 17.5 3.4 10 7.9 17.3 15.3 24.8l7.3 7.3-2 3.9c-3.5 6.8-2.3 12 3 13.9 3.7 1.3 7.2.1 9.4-3.1.9-1.3 3.7-5.1 6.1-8.4 6.7-9.2 6.1-13.2-2.7-18.2-7-3.9-14.7-12.2-18.3-19.7-2.7-5.6-3-6.9-3-17.5 0-11 .1-11.8 3.3-18.2 3.9-8.1 10.7-15.3 18.1-19.3 8.3-4.6 9.2-9.1 3.2-16.9-2.1-2.8-4.6-6.5-5.5-8.3-.9-1.8-2.5-3.7-3.5-4.3-2.7-1.4-7.4-1.3-9.4.2z"/></svg>