<svg width="68" height="86" fill="none" xmlns="http://www.w3.org/2000/svg"><path d="M34.038.047C15.624.047.643 15.023.643 33.43c0 11.387 5.403 23.611 16.06 36.335 7.828 9.346 15.55 15.356 15.874 15.608a2.384 2.384 0 002.922 0c.325-.252 8.046-6.262 15.874-15.608C62.03 57.042 67.434 44.818 67.434 33.43 67.434 15.024 52.452.047 34.038.047zM46.405 33.43c0 6.828-5.537 12.364-12.367 12.364-6.83 0-12.368-5.536-12.368-12.364 0-6.828 5.538-12.363 12.368-12.363s12.367 5.535 12.367 12.363z" fill="#CC2A41"/><path opacity=".1" d="M34.038.047c-1.46 0-2.897.095-4.308.277 16.388 2.119 29.088 16.158 29.088 33.107 0 11.387-5.403 23.612-16.06 36.336A119.44 119.44 0 0129.73 83.01a72.67 72.67 0 002.847 2.363 2.384 2.384 0 002.922 0c.325-.251 8.046-6.262 15.874-15.607 10.657-12.724 16.06-24.95 16.06-36.336C67.434 15.023 52.453.047 34.039.047z" fill="#000"/></svg>