<svg width="160" height="80" fill="none" xmlns="http://www.w3.org/2000/svg"><path d="M127.353 25.347c-4.366 0-9.56 2.968-10.56 12.272V16.64h-11.101v5.165c1.884 0 3.027.942 3.027 2.827V37.59c-1.2-9.733-5.936-12.3-8.219-12.272-2.397 0-4.737 1.456-5.45 4.14v-3.54h-9.56v5.507c-1.513-4.453-6.165-6.107-8.904-6.107-1.513 0-8.02.686-9.903 9.475-1.77-11.56-12.3-10.703-16.724-6.85-.227-2.91-.827-6.849-3.711-9.133-1.57-1.226-3.91-2.226-7.192-2.226H21.613v6.221c3.027.027 3.139 2.91 3.139 3.368v18.693c0 2.112-.8 3.48-3.168 3.511v6.194h16.153v-6.307c-2.34-.027-3.11-1.284-3.11-3.396v-5.251h2.74c3.282-.115 6.02.285 8.989-2.91-.085.885-.313 2.682-.313 3.595-.115 4.595.426 8.847 3.196 11.645.057.057 2.826 3.226 7.42 3.282 2.568.027 8.39-.456 9.933-9.218.343 1.17 2.227 9.218 10.53 9.218 8.363 0 10.103-7.62 10.531-9.96v9.36c-.026 2.483-1.853 3.624-2.996 3.653v5.138h13.6v-5.165c-1.511-.2-2.94-1.6-2.94-3.825l-.114-3.596c1.2 3.283 4.394 4.367 5.706 4.367 1.57 0 5.138-.856 6.164-7.107v6.394h11.616V48.18c1.484 9.704 18.379 9.59 19.407-2.627h-8.02c-.313 1.742-1.084 3.14-2.54 3.14-1.797 0-2.568-2.084-2.683-4.366-.057-.827-.085-1.712-.057-2.254h13.528c.143-2.767.285-7.049-1.769-11.101-1.627-3.139-4.767-5.623-9.219-5.623l.017-.002zM36.884 32.51h-2.283v-8.76h2.254c1.77 0 2.768 1.484 2.768 4.337.026 3.139-.686 4.367-2.74 4.424l.001-.001zm17.237 3.68c.115-2.312.914-4.51 2.74-4.51 1.798 0 2.512 2.198 2.627 4.51.027.77.057.826 0 1.4h-5.365c-.058-.57-.058-.6 0-1.4h-.002zm5.307 9.36c-.285 1.741-1.084 3.14-2.54 3.11-1.797 0-2.568-2.084-2.683-4.366-.057-.827-.085-1.712-.057-2.254H66.02c.027 1.37.086 1.742.427 3.48h-7.02l.001.03zm17.667 3.196c-2.112-.027-2.94-3.767-2.94-8.448 0-4.654.885-8.476 2.94-8.448 2.112.026 2.94 3.767 2.94 8.448 0 4.681-.8 8.476-2.94 8.448zm20.662-.058c-1.653 0-2.226-1.769-2.226-4.138v-8.648c-.086-2.94.77-4.338 2.426-4.28 1.712.085 2.711 2.282 2.711 8.704.027 5.85-1.084 8.362-2.91 8.362zm32.392-11.1h-5.365c-.057-.572-.027-.628 0-1.401.115-2.312.885-4.337 2.683-4.337 1.797 0 2.568 2.026 2.682 4.337.058.8.058.827 0 1.4z" fill="#000"/></svg>