<svg version="1.0" xmlns="http://www.w3.org/2000/svg" width="682.667" height="682.667" viewBox="0 0 512 512"><path d="M299.3 129.2c-22.2 3.2-39.4 21-42.5 44-.8 6.4-1.6 8.9-2.7 9.3-.9.2-56.9 15.1-124.6 33-67.6 17.9-124 33-125.2 33.6C1 250.9-.5 255.3 1 259c.7 1.7 2.1 3.5 3.1 4.1 1.4.7 249.9 66.9 251.3 66.9.2 0 .7 3 1.1 6.7 1.4 13.4 6.2 23.7 15.2 32.5 19.6 19 49.5 19.4 69.5.9 3.3-3 7.1-7.4 8.5-9.8 1.8-3.1 3.1-4.3 4.2-3.9.9.3 5.3 1.8 9.7 3.5 26.6 9.7 54.6 9 81.1-2.2 25-10.5 48.4-34.1 58.4-58.9 12.5-30.6 11.3-63.3-3.5-92.7-15.7-31.2-45.3-52.9-80.3-59.1-7.9-1.4-29.2-1.4-36.1-.1-9 1.8-17.5 4.2-23.4 6.7-3.2 1.3-6.2 2.4-6.7 2.4-.6 0-2.2-2-3.6-4.4-4.8-8.1-15.3-16.5-25.5-20.2-5.8-2-18-3.1-24.7-2.2zm21.9 19.1c7.7 3.8 13.5 9.9 17.3 18.1 5.2 11.4 7.8 12.4 17.7 7.1 37.7-19.9 83.1-12.9 112.1 17.4 9 9.5 12.8 14.9 17.8 25.6 6.7 14.2 8.2 21.7 8.2 39.5.1 17.9-1.6 25.7-8.3 39.9-9.8 20.4-24.7 35.3-45.1 45.1-14 6.7-21.9 8.3-39.9 8.3-18.3 0-25.5-1.6-40.9-8.9-9.8-4.7-14-5.5-16.8-3.2-.9.7-3 4.5-4.8 8.4-4 8.6-9.7 14.6-17.4 18.3-4.8 2.2-6.9 2.6-14.6 2.5-7.8 0-9.7-.4-14.3-2.7-7-3.7-12.8-9.6-16-16.6-2.3-4.7-2.7-7-2.7-14.2 0-7.9.3-9.2 3.5-15.4 2.5-5 5-8 8.7-11 5.7-4.5 7.8-8.2 6.8-11.7-.4-1.3-3.5-5.2-6.9-8.9-9.7-10.2-13.2-19.4-12.4-32.8.6-10.4 4.6-19 12.8-27.5 3.7-3.9 6.2-7.4 6.6-9.4.6-3 .1-3.7-7-10.6-10-9.8-12-14.1-12.1-26.1 0-9.8 1.9-15.6 7.1-21.8 10.1-12 27.2-16 40.6-9.4zM268 212l3.2 4-4.8 7.1c-13.5 20.4-13.1 48.5 1.1 67.9 1.9 2.6 3.5 5.1 3.5 5.5 0 .4-1.5 2.5-3.4 4.6-1.8 2.2-4.4 6-5.7 8.5-1.3 2.4-2.8 4.3-3.4 4.1-.5-.2-49.3-13.1-108.2-28.7C91.3 269.4 43 256.4 43 256.1c0-.3 48.7-13.5 108.3-29.2l108.2-28.6 2.7 4.8c1.4 2.7 4 6.7 5.8 8.9z"/><path d="M343.3 189c-1.1.5-2.8 1.9-3.7 3.2-.9 1.3-3.7 5.1-6.1 8.4-6.7 9.2-6.1 13.2 2.7 18.2 7 3.9 14.7 12.2 18.3 19.7 2.7 5.6 3 6.9 3 17.5 0 11-.1 11.8-3.3 18.2-3.9 8.1-10.7 15.3-18.1 19.3-8.3 4.6-9.2 9.1-3.2 16.9 2.1 2.8 4.6 6.5 5.5 8.3 3.6 7.2 13 7.3 15.5.2.9-2.7.7-4-1.4-8.6l-2.4-5.4 6.2-5.9c7-6.5 11.8-13.8 15.5-23.8 2.2-5.8 2.6-8.4 2.6-18.7.1-9.2-.3-13.3-1.8-17.5-3.4-10-7.9-17.3-15.3-24.8l-7.3-7.3 2-3.9c1.1-2.2 2-5.3 2-7 0-2.8-2.9-7-4.9-7-.5 0-1.5-.2-2.3-.4-.7-.3-2.3-.1-3.5.4zm120.3 61.3c-1.8 1.8-2.4 3.9-3 9.9-1.4 15.5-7 27.4-18 38.3-10.8 10.6-21.1 15.3-38.1 17.4-9 1.1-11.5 3-11.5 8.5.1 6.9 4.4 8.9 16.6 7.5 31.6-3.6 57.6-26.3 65.4-57.3 1.1-4.4 2-11.2 2-15.2 0-6.6-.2-7.4-2.6-9.3-3.5-2.8-7.9-2.7-10.8.2z"/></svg>