<svg width="1085" height="418" fill="none" xmlns="http://www.w3.org/2000/svg"><path d="M27.773 56.938L43.578 1.374h7.656l-4.43 21.602L29.798 81h-7.602l5.578-24.063zM11.422 1.374L24 55.844 27.773 81h-7.546L.922 1.375h10.5zm60.266 54.414L83.992 1.375h10.555L75.297 81H67.75l3.938-25.21zM52.383 1.375L67.75 56.938 73.328 81h-7.601L49.32 22.977 44.836 1.375h7.547zm104.453 71.04V81h-42.164v-8.586h42.164zm-40.031-71.04V81H106.25V1.375h10.555zm34.453 34.234v8.586h-36.586V35.61h36.586zm5.031-34.234v8.64h-41.617v-8.64h41.617zm44.734 0h10.227l26.086 64.914 26.031-64.914h10.281L241.273 81h-7.984L201.023 1.375zm-3.335 0h9.023l1.477 48.563V81h-10.5V1.375zm70.218 0h9.024V81h-10.5V49.937l1.476-48.562zM325.93 8.43L299.57 81h-10.773l30.351-79.625h6.946l-.164 7.055zM348.023 81L321.609 8.43l-.164-7.055h6.946L358.852 81h-10.829zm-1.367-29.477v8.641h-44.734v-8.64h44.734zM380.07 1.375V81h-10.554V1.375h10.554zm48.071 0l-33.086 37.133-18.594 19.304-1.75-11.265 14-15.422 26.742-29.75h12.688zM417.969 81l-29.477-38.828 6.289-8.367L430.547 81h-12.578zm72.461-8.586V81h-42.164v-8.586h42.164zM450.398 1.375V81h-10.554V1.375h10.554zm34.454 34.234v8.586h-36.586V35.61h36.586zm5.031-34.234v8.64h-41.617v-8.64h41.617zm52.719 0V81h-10.555V1.375h10.555zm67.265 54.305h10.5c-.547 5.03-1.987 9.533-4.32 13.508-2.333 3.974-5.633 7.127-9.899 9.46-4.265 2.297-9.588 3.446-15.968 3.446-4.667 0-8.914-.875-12.742-2.625-3.792-1.75-7.055-4.23-9.79-7.438-2.734-3.245-4.849-7.127-6.343-11.648-1.459-4.558-2.188-9.625-2.188-15.203v-7.93c0-5.578.729-10.628 2.188-15.148 1.494-4.558 3.627-8.459 6.398-11.704a28.546 28.546 0 0110.117-7.492c3.938-1.75 8.368-2.625 13.289-2.625 6.016 0 11.102 1.13 15.258 3.39 4.156 2.261 7.383 5.397 9.68 9.407 2.333 3.974 3.773 8.586 4.32 13.836h-10.5c-.51-3.719-1.458-6.909-2.844-9.57-1.385-2.698-3.354-4.776-5.906-6.235-2.552-1.458-5.888-2.187-10.008-2.187-3.536 0-6.653.674-9.351 2.023-2.662 1.35-4.904 3.263-6.727 5.742-1.786 2.48-3.135 5.451-4.047 8.915-.911 3.463-1.367 7.31-1.367 11.539v8.039c0 3.9.401 7.565 1.203 10.992.839 3.427 2.097 6.435 3.774 9.023 1.677 2.589 3.81 4.63 6.398 6.125 2.589 1.459 5.651 2.188 9.188 2.188 4.484 0 8.057-.711 10.718-2.133 2.662-1.422 4.667-3.463 6.016-6.125 1.385-2.661 2.37-5.852 2.953-9.57zm75.469 16.734V81h-42.164v-8.586h42.164zM645.305 1.375V81H634.75V1.375h10.555zm34.453 34.234v8.586h-36.586V35.61h36.586zm5.031-34.234v8.64h-41.617v-8.64h41.617zm89.469 54.305h10.5c-.547 5.03-1.987 9.533-4.32 13.508-2.334 3.974-5.633 7.127-9.899 9.46-4.266 2.297-9.588 3.446-15.969 3.446-4.666 0-8.914-.875-12.742-2.625-3.792-1.75-7.055-4.23-9.789-7.438-2.734-3.245-4.849-7.127-6.344-11.648-1.458-4.558-2.187-9.625-2.187-15.203v-7.93c0-5.578.729-10.628 2.187-15.148 1.495-4.558 3.628-8.459 6.399-11.704a28.537 28.537 0 0110.117-7.492c3.937-1.75 8.367-2.625 13.289-2.625 6.016 0 11.102 1.13 15.258 3.39 4.156 2.261 7.383 5.397 9.68 9.407 2.333 3.974 3.773 8.586 4.32 13.836h-10.5c-.511-3.719-1.459-6.909-2.844-9.57-1.385-2.698-3.354-4.776-5.906-6.235-2.552-1.458-5.888-2.187-10.008-2.187-3.536 0-6.654.674-9.352 2.023-2.661 1.35-4.903 3.263-6.726 5.742-1.787 2.48-3.136 5.451-4.047 8.915-.911 3.463-1.367 7.31-1.367 11.539v8.039c0 3.9.401 7.565 1.203 10.992.838 3.427 2.096 6.435 3.773 9.023 1.677 2.589 3.81 4.63 6.399 6.125 2.588 1.459 5.651 2.188 9.187 2.188 4.485 0 8.058-.711 10.719-2.133 2.662-1.422 4.667-3.463 6.016-6.125 1.385-2.661 2.369-5.852 2.953-9.57zm24.883-54.305H825.5c5.979 0 11.029.911 15.148 2.734 4.157 1.823 7.31 4.521 9.461 8.094 2.188 3.537 3.282 7.893 3.282 13.07 0 3.646-.748 6.982-2.243 10.008-1.458 2.99-3.572 5.542-6.343 7.657-2.735 2.078-6.016 3.627-9.844 4.648l-2.953 1.148h-24.774l-.109-8.586h18.703c3.792 0 6.945-.656 9.461-1.968 2.516-1.35 4.412-3.154 5.688-5.414 1.276-2.26 1.914-4.758 1.914-7.493 0-3.062-.602-5.742-1.805-8.039-1.203-2.297-3.099-4.065-5.688-5.304-2.552-1.276-5.851-1.914-9.898-1.914h-15.805V81h-10.554V1.375zM845.68 81l-19.36-36.094 10.992-.054 19.633 35.492V81H845.68zm73.062-8.586V81h-42.164v-8.586h42.164zM878.711 1.375V81h-10.555V1.375h10.555zm34.453 34.234v8.586h-36.586V35.61h36.586zm5.031-34.234v8.64h-41.617v-8.64h41.617zm43.094 7.055L934.93 81h-10.774l30.352-79.625h6.945l-.164 7.055zM983.383 81L956.969 8.43l-.164-7.055h6.945L994.211 81h-10.828zm-1.367-29.477v8.641h-44.735v-8.64h44.735zm26.194-50.148h10.23l26.08 64.914 26.03-64.914h10.29L1048.46 81h-7.98l-32.27-79.625zm-3.33 0h9.02l1.48 48.563V81h-10.5V1.375zm70.21 0h9.03V81h-10.5V49.937l1.47-48.562zm-1022.817 168V249h-10.39v-79.625h10.39zm25.594 0v8.641H16.344v-8.641h61.523zm63.821 34.234v8.586H98.594v-8.586h43.094zm-41.454-34.234V249H89.68v-79.625h10.554zm50.641 0V249h-10.5v-79.625h10.5zm69.344 71.039V249h-42.164v-8.586h42.164zm-40.031-71.039V249h-10.555v-79.625h10.555zm34.453 34.234v8.586h-36.586v-8.586h36.586zm5.031-34.234v8.641h-41.617v-8.641h41.617zm62.344 55.563l15.804-55.563h7.657l-4.43 21.602L284.039 249h-7.601l5.578-24.062zm-16.352-55.563l12.578 54.469L282.016 249h-7.547l-19.305-79.625h10.5zm60.266 54.414l12.304-54.414h10.555L329.539 249h-7.547l3.938-25.211zm-19.305-54.414l15.367 55.563L327.57 249h-7.601l-16.407-58.023-4.484-21.602h7.547zm80.937 7.055L361.203 249H350.43l30.351-79.625h6.946l-.165 7.055zM409.656 249l-26.414-72.57-.164-7.055h6.945L420.484 249h-10.828zm-1.367-29.477v8.641h-44.734v-8.641h44.734zm21.383-50.148l20.672 39.977 20.726-39.977h11.977l-27.453 49.875V249h-10.555v-29.75l-27.453-49.875h12.086zm102.703 0V249H521.82v-79.625h10.555zm46.977 0V249h-10.391v-79.625h10.391zm25.593 0v8.641h-61.523v-8.641h61.523zm82.961 0h10.5v53.867c0 5.979-1.33 10.956-3.992 14.93-2.661 3.974-6.198 6.963-10.609 8.969-4.375 1.968-9.133 2.953-14.274 2.953-5.396 0-10.281-.985-14.656-2.953-4.339-2.006-7.784-4.995-10.336-8.969-2.516-3.974-3.773-8.951-3.773-14.93v-53.867h10.445v53.867c0 4.156.766 7.584 2.297 10.281 1.531 2.698 3.664 4.704 6.398 6.016 2.771 1.313 5.979 1.969 9.625 1.969 3.683 0 6.891-.656 9.625-1.969 2.771-1.312 4.922-3.318 6.453-6.016 1.532-2.697 2.297-6.125 2.297-10.281v-53.867zm69.508 59.5c0-1.859-.292-3.5-.875-4.922-.547-1.458-1.531-2.771-2.953-3.937-1.385-1.167-3.318-2.279-5.797-3.336-2.443-1.058-5.542-2.133-9.297-3.227-3.937-1.167-7.492-2.461-10.664-3.883-3.172-1.458-5.888-3.117-8.148-4.976-2.261-1.86-3.992-3.992-5.196-6.399-1.203-2.406-1.804-5.159-1.804-8.257 0-3.099.638-5.961 1.914-8.586 1.276-2.625 3.099-4.904 5.468-6.836 2.407-1.969 5.269-3.5 8.586-4.594 3.318-1.094 7.019-1.641 11.102-1.641 5.979 0 11.047 1.149 15.203 3.446 4.193 2.26 7.383 5.231 9.57 8.914 2.188 3.645 3.282 7.547 3.282 11.703h-10.5c0-2.99-.638-5.633-1.914-7.93-1.276-2.333-3.209-4.156-5.797-5.469-2.589-1.349-5.87-2.023-9.844-2.023-3.755 0-6.854.565-9.297 1.695-2.443 1.13-4.265 2.662-5.469 4.594-1.166 1.932-1.75 4.138-1.75 6.617 0 1.677.347 3.208 1.039 4.594.73 1.349 1.842 2.607 3.336 3.773 1.532 1.167 3.464 2.243 5.797 3.227 2.37.984 5.196 1.932 8.477 2.844 4.521 1.276 8.422 2.698 11.703 4.265 3.281 1.568 5.979 3.336 8.094 5.305 2.151 1.932 3.737 4.138 4.758 6.617 1.057 2.443 1.585 5.214 1.585 8.313 0 3.244-.656 6.179-1.968 8.804-1.313 2.625-3.19 4.868-5.633 6.727s-5.378 3.299-8.805 4.32c-3.39.985-7.182 1.477-11.375 1.477-3.682 0-7.31-.511-10.883-1.532-3.536-1.02-6.763-2.552-9.679-4.593-2.881-2.042-5.196-4.558-6.946-7.547-1.713-3.026-2.57-6.526-2.57-10.5h10.5c0 2.734.529 5.086 1.586 7.055a14.014 14.014 0 004.32 4.812c1.86 1.276 3.956 2.224 6.289 2.844 2.37.583 4.831.875 7.383.875 3.682 0 6.8-.511 9.352-1.531 2.552-1.021 4.484-2.48 5.797-4.375 1.349-1.896 2.023-4.138 2.023-6.727zm74.648 11.539V249h-42.164v-8.586h42.164zm-40.031-71.039V249h-10.554v-79.625h10.554zm34.453 34.234v8.586h-36.586v-8.586h36.586zm5.032-34.234v8.641h-41.618v-8.641h41.618zM866.68 249h-16.625l.109-8.586h16.516c5.687 0 10.427-1.185 14.218-3.555 3.792-2.406 6.636-5.76 8.532-10.062 1.932-4.339 2.898-9.406 2.898-15.203v-4.867c0-4.558-.547-8.605-1.64-12.141-1.094-3.573-2.698-6.581-4.813-9.024-2.115-2.479-4.703-4.356-7.766-5.632-3.026-1.276-6.507-1.914-10.445-1.914h-17.937v-8.641h17.937c5.214 0 9.971.875 14.274 2.625 4.302 1.714 8.002 4.211 11.101 7.492 3.135 3.245 5.542 7.182 7.219 11.813 1.677 4.593 2.515 9.771 2.515 15.531v4.758c0 5.76-.838 10.955-2.515 15.586-1.677 4.593-4.102 8.513-7.274 11.758-3.135 3.244-6.927 5.742-11.375 7.492-4.411 1.713-9.388 2.57-14.929 2.57zm-10.992-79.625V249h-10.555v-79.625h10.555zm117.96 0V249h-10.39v-79.625h10.39zm25.594 0v8.641h-61.523v-8.641h61.523zm71.588 37.297v5.031c0 5.979-.75 11.339-2.24 16.078-1.5 4.74-3.65 8.768-6.46 12.086a27.963 27.963 0 01-10.11 7.602c-3.91 1.75-8.28 2.625-13.13 2.625-4.7 0-9.02-.875-12.96-2.625-3.9-1.75-7.29-4.284-10.17-7.602-2.85-3.318-5.05-7.346-6.62-12.086-1.57-4.739-2.35-10.099-2.35-16.078v-5.031c0-5.979.76-11.32 2.3-16.024 1.56-4.739 3.77-8.768 6.61-12.086 2.85-3.354 6.22-5.906 10.12-7.656 3.94-1.75 8.26-2.625 12.96-2.625 4.85 0 9.23.875 13.13 2.625 3.93 1.75 7.31 4.302 10.11 7.656 2.85 3.318 5.02 7.347 6.51 12.086 1.53 4.704 2.3 10.045 2.3 16.024zm-10.45 5.031v-5.141c0-4.739-.49-8.932-1.47-12.578-.95-3.645-2.36-6.708-4.21-9.187-1.86-2.479-4.14-4.357-6.84-5.633-2.66-1.276-5.69-1.914-9.08-1.914-3.28 0-6.25.638-8.91 1.914-2.63 1.276-4.89 3.154-6.78 5.633-1.86 2.479-3.3 5.542-4.32 9.187-1.03 3.646-1.54 7.839-1.54 12.578v5.141c0 4.776.51 9.005 1.54 12.688 1.02 3.645 2.47 6.726 4.37 9.242 1.93 2.479 4.21 4.357 6.84 5.633 2.66 1.276 5.63 1.914 8.91 1.914 3.43 0 6.47-.638 9.13-1.914 2.66-1.276 4.91-3.154 6.73-5.633 1.86-2.516 3.26-5.597 4.21-9.242.95-3.683 1.42-7.912 1.42-12.688zM501.641 379.758h-20.18l-.109-8.477h18.32c3.026 0 5.669-.51 7.93-1.531 2.26-1.021 4.01-2.479 5.25-4.375 1.276-1.932 1.914-4.229 1.914-6.891 0-2.916-.565-5.286-1.696-7.109-1.093-1.859-2.789-3.208-5.086-4.047-2.26-.875-5.14-1.312-8.64-1.312h-15.532V417h-10.554v-79.625h26.086c4.083 0 7.729.419 10.937 1.258 3.209.802 5.925 2.078 8.149 3.828 2.26 1.713 3.974 3.901 5.14 6.562 1.167 2.662 1.75 5.852 1.75 9.571 0 3.281-.838 6.252-2.515 8.914-1.677 2.625-4.011 4.776-7 6.453-2.953 1.677-6.417 2.753-10.391 3.227l-3.773 2.57zM501.148 417h-23.843l5.961-8.586h17.882c3.355 0 6.198-.583 8.532-1.75 2.369-1.167 4.174-2.807 5.414-4.922 1.239-2.151 1.859-4.685 1.859-7.601 0-2.953-.529-5.506-1.586-7.657s-2.716-3.81-4.976-4.976c-2.261-1.167-5.177-1.75-8.75-1.75h-15.039l.109-8.477h20.562l2.243 3.063c3.828.328 7.073 1.422 9.734 3.281 2.661 1.823 4.685 4.156 6.07 7 1.422 2.844 2.133 5.979 2.133 9.406 0 4.959-1.094 9.151-3.281 12.578-2.151 3.391-5.195 5.98-9.133 7.766-3.937 1.75-8.568 2.625-13.891 2.625zm92.477-8.586V417h-42.164v-8.586h42.164zm-40.031-71.039V417h-10.555v-79.625h10.555zm34.453 34.234v8.586h-36.586v-8.586h36.586zm5.031-34.234v8.641h-41.617v-8.641h41.617zm12.25 74.266c0-1.714.529-3.154 1.586-4.321 1.094-1.203 2.662-1.804 4.703-1.804 2.042 0 3.591.601 4.649 1.804 1.093 1.167 1.64 2.607 1.64 4.321 0 1.677-.547 3.099-1.64 4.265-1.058 1.167-2.607 1.75-4.649 1.75-2.041 0-3.609-.583-4.703-1.75-1.057-1.166-1.586-2.588-1.586-4.265z" fill="#ECE9E9"/></svg>