<svg width="769" height="27" fill="none" xmlns="http://www.w3.org/2000/svg"><path d="M14.681 12.845c1.18.095 2.172.57 3.022 1.47.85.901 1.274 2.134 1.274 3.7 0 1.896-.613 3.461-1.888 4.6-1.274 1.137-3.068 1.706-5.476 1.706H0V1.843h11.566c2.03 0 3.682.57 4.91 1.66 1.227 1.138 1.84 2.608 1.84 4.458 0 1.422-.377 2.513-1.18 3.367-.802.853-1.605 1.28-2.502 1.375l.047.142zm-9.158-1.707h4.815c.803 0 1.464-.237 1.983-.711.472-.475.755-1.044.755-1.85 0-.711-.236-1.233-.708-1.66-.472-.427-1.085-.616-1.793-.616H5.523v4.837zm5.099 8.726c.85 0 1.558-.238 2.03-.664.472-.427.708-1.044.708-1.85 0-.759-.236-1.328-.756-1.754-.472-.427-1.133-.664-1.888-.664H5.523v4.932h5.099zm27.474 4.457h-5.334V22.71c-1.322 1.423-3.069 2.134-5.146 2.134-1.982 0-3.54-.664-4.72-1.944-1.18-1.28-1.794-2.988-1.794-5.075V7.487h5.287v9.2c0 .996.283 1.802.803 2.419.519.616 1.227.9 2.077.9 1.085 0 1.935-.378 2.549-1.137.613-.759.897-1.945.897-3.557V7.486h5.334l.047 16.835zm16.476 0H40.41v-.995l6.656-11.572h-6.468V7.486h13.88v.996L47.82 20.053h6.704v4.268h.047zm16.428 0H56.885v-.995l6.609-11.572h-6.467V7.486h13.879v.996l-6.657 11.571h6.704L71 24.321zm82.919-20.029v7.186h-10.011V4.292l-3.646-.003v18.118h3.646v-7.784h10.011v7.784h3.652V4.292h-3.652zm48.507.001v18.11h15.996l-2.026-3.188h-10.314v-4.591h9.988v-3.07h-9.988V7.405h10.297l1.985-3.113h-15.938zm-75.718-.005c-3.792 0-5.708 2.306-5.708 5.66v6.764c0 3.882 2.469 5.695 5.69 5.695h11.439l-2.121-3.313h-8.612c-1.829 0-2.626-.66-2.626-2.709V10.25c0-1.979.671-2.751 2.675-2.751h8.653l2.037-3.21h-11.427zm59.715-.005c-2.19 0-4.435 1.317-4.435 4.703v.87c0 3.53 2.16 4.878 4.321 4.887h7.586c.788 0 1.429.13 1.429 1.463l-.002 1.538c-.02 1.197-.616 1.47-1.454 1.47h-9.98l-2.044 3.189h12.259c2.956 0 4.964-1.471 4.964-4.868v-1.249c0-3.284-1.865-4.836-4.756-4.836h-7.244c-.803 0-1.363-.22-1.363-1.409V8.788c0-1.013.384-1.382 1.32-1.382l9.504-.004 1.987-3.123-12.092.004zm-18.258.01l-8.591 18.114h4.06l1.674-3.741h9.335l1.668 3.74h4.078l-8.611-18.113h-3.613zm1.801 3.76l3.301 7.53h-6.581l3.28-7.53zm192.635 4.333V10.73h-2.057V8.155l-.069.021-1.97.603v1.95h-3.049V9.643c-.03-.412.09-.82.336-1.152a1.178 1.178 0 01.942-.385c.309.004.613.073.894.203l.076.034V6.6l-.036-.013a3.487 3.487 0 00-1.143-.152 3.349 3.349 0 00-1.62.39 2.777 2.777 0 00-1.112 1.098 3.275 3.275 0 00-.393 1.613v1.195h-1.432v1.656h1.432v6.977h2.056v-6.977h3.049v4.433c0 1.827.861 2.751 2.56 2.751.294-.002.586-.034.873-.096a2.42 2.42 0 00.636-.202l.027-.016v-1.672l-.084.056c-.127.08-.267.14-.413.178-.132.04-.268.064-.406.07a1.102 1.102 0 01-.875-.32 1.712 1.712 0 01-.279-1.106v-4.076h2.057zm-15.225 5.502a2.18 2.18 0 01-1.75-.735 3.127 3.127 0 01-.628-2.075 3.246 3.246 0 01.628-2.13 2.15 2.15 0 011.733-.747 2.112 2.112 0 011.686.713c.451.609.669 1.358.616 2.113a3.393 3.393 0 01-.579 2.14 2.07 2.07 0 01-1.706.721zm.091-7.37a4.511 4.511 0 00-3.361 1.24 4.64 4.64 0 00-1.214 3.385 4.406 4.406 0 001.185 3.231 4.308 4.308 0 003.182 1.194 4.388 4.388 0 003.294-1.257 4.638 4.638 0 001.214-3.351 4.524 4.524 0 00-1.139-3.254 4.196 4.196 0 00-3.161-1.186v-.002zm-7.89.002a3.714 3.714 0 00-2.381.736 2.343 2.343 0 00-.929 1.916c-.007.367.061.731.201 1.07.138.313.348.588.614.802.383.288.803.523 1.248.7.356.14.703.301 1.039.483.177.093.333.22.458.376a.84.84 0 01.127.49c0 .58-.434.863-1.328.863a3.657 3.657 0 01-1.124-.206 4.235 4.235 0 01-1.151-.583l-.085-.061v1.98l.031.014c.349.153.715.265 1.09.336.382.084.772.129 1.164.134a3.944 3.944 0 002.514-.74 2.387 2.387 0 00.936-1.961 2.253 2.253 0 00-.504-1.484 4.31 4.31 0 00-1.711-1.09 4.415 4.415 0 01-1.219-.634.89.89 0 01-.246-.665.743.743 0 01.312-.615c.256-.177.564-.264.875-.247.353.002.704.056 1.042.16.322.094.629.236.91.422l.083.057v-1.875l-.032-.014a4.487 4.487 0 00-.923-.257 5.643 5.643 0 00-1.013-.105l.002-.002zm-8.669 7.368a2.176 2.176 0 01-1.749-.735 3.12 3.12 0 01-.628-2.073 3.242 3.242 0 01.629-2.13 2.139 2.139 0 011.732-.747 2.114 2.114 0 011.686.713c.451.609.669 1.358.617 2.113a3.394 3.394 0 01-.58 2.14 2.054 2.054 0 01-1.706.72h-.001zm.093-7.367a4.507 4.507 0 00-3.361 1.24 4.657 4.657 0 00-1.215 3.384 4.417 4.417 0 001.186 3.231 4.297 4.297 0 003.181 1.194 4.383 4.383 0 003.294-1.257 4.639 4.639 0 001.215-3.351 4.524 4.524 0 00-1.14-3.254 4.193 4.193 0 00-3.16-1.186v-.001zm-7.696 1.704V10.73h-2.031v8.633h2.031v-4.416a3.08 3.08 0 01.506-1.834 1.553 1.553 0 011.315-.694c.206.003.411.033.61.09.168.036.328.101.474.19l.085.063v-2.047l-.033-.014a2.102 2.102 0 00-.795-.121 2.08 2.08 0 00-1.358.487 2.757 2.757 0 00-.782 1.159h-.022zm-5.668-1.704a5.013 5.013 0 00-2.469.594 3.997 3.997 0 00-1.629 1.675 5.336 5.336 0 00-.56 2.481 4.58 4.58 0 00.544 2.225 3.82 3.82 0 001.52 1.536 4.522 4.522 0 002.22.54 4.865 4.865 0 002.452-.574l.026-.015v-1.86l-.085.062c-.304.22-.639.394-.994.517-.311.116-.64.18-.973.189a2.496 2.496 0 01-1.901-.741 2.881 2.881 0 01-.701-2.053 2.989 2.989 0 01.731-2.108 2.483 2.483 0 011.905-.786 3.265 3.265 0 011.933.673l.085.062v-1.962l-.028-.015a3.34 3.34 0 00-.939-.318 5.613 5.613 0 00-1.136-.122h-.001zm-6.055.208h-2.031v8.634h2.031V10.73zm-.995-3.678a1.222 1.222 0 00-.865.34 1.129 1.129 0 00-.363.847 1.102 1.102 0 00.357.83c.236.219.548.338.869.33.323.007.636-.111.873-.33a1.088 1.088 0 00.363-.83 1.148 1.148 0 00-.353-.838 1.208 1.208 0 00-.883-.349h.002zm-5.069 3.041v9.272h2.072V7.316h-2.868l-3.646 8.949-3.539-8.949h-2.986v12.047h1.948V10.09h.067l3.736 9.272h1.471l3.678-9.272.067.001zm-27.542 2.752h-9.554V3.29h9.554v9.554zm10.549 0h-9.554V3.29h9.554v9.554zm-10.549 10.552h-9.554v-9.554h9.554v9.554zm10.549 0h-9.554v-9.554h9.554v9.554z" fill="#718087"/><path opacity=".8" d="M433.984 17.206v4.959c-1.802 1.585-6.109 2.528-9.316 2.528-3.202 0-12.067-1.984-12.067-11.303 0-9.32 8.438-11.328 11.841-11.328 3.408 0 7.038.618 9.14 2.008v4.361c0 .545-.751.496-.751 0-.05-.743-2.053-5.202-7.062-5.104-5.408.11-9.062 4.316-9.062 9.864 0 5.547 3.551 10.31 8.914 10.16 1.741-.048 3.555-.593 4.434-1.316l.021-4.829c0-1.386-.85-1.882-1.7-1.882-.554 0-.554-.792 0-.792h7.308c.551 0 .551.841 0 .792-.846 0-1.7.496-1.7 1.882zm49.275-8.77c0 .544-.55.495-.55 0-.053-.744-2.053-5.353-7.062-5.252-5.407.106-9.066 4.463-9.066 10.01 0 5.548 3.507 10.458 8.865 10.312 5.358-.15 7.912-5.402 8.113-6.097.201-.695.55-.593.55-.048v4.064c-2.2 1.585-6.36 3.272-9.562 3.272-3.203 0-12.068-1.984-12.068-11.303 0-9.324 8.413-11.551 11.817-11.551 3.408 0 6.861.841 8.967 2.227v4.365h-.004zm-22.685-6.048c.801 0 .801.743 0 .743-.85 0-1.7.496-1.7 1.882l-.098 10.832c0 5.186-4.25 8.998-9.493 8.998s-9.337-3.812-9.337-8.998V5.013c0-1.39-.854-1.882-1.704-1.882-.8 0-.8-.743 0-.743h7.411c.801 0 .801.743 0 .743-.854 0-1.704.496-1.704 1.882l-.008 12.096c0 3.657 3.022 6.624 6.718 6.624 3.695 0 6.692-3.71 6.692-7.364l-.181-11.356c0-1.39-.849-1.882-1.703-1.882-.797 0-.797-.743 0-.743h5.107zm47.173 6.047c0 .545-.55.496-.55 0-.05-.743-2.053-5.352-7.062-5.25-5.408.105-9.066 4.462-9.066 10.01 0 5.547 3.506 10.457 8.864 10.31 5.359-.145 7.912-5.4 8.114-6.096.201-.695.554-.593.554-.048v4.064c-2.205 1.585-6.36 3.272-9.567 3.272-3.202 0-12.067-1.984-12.067-11.303 0-9.324 8.413-11.551 11.821-11.551 3.404 0 6.861.841 8.963 2.227v4.365h-.004z" fill="#718087"/><path d="M603.399 6.705c0 .962-.771 1.736-1.727 1.736a1.727 1.727 0 01-1.726-1.736c0-.961.744-1.736 1.726-1.736.983.027 1.727.801 1.727 1.736zm-7.117 3.5v.427s-.823-1.069-2.576-1.069c-2.894 0-5.151 2.218-5.151 5.29 0 3.045 2.231 5.288 5.151 5.288 1.78 0 2.576-1.095 2.576-1.095v.454c0 .214.16.374.372.374h2.15V9.83h-2.15a.383.383 0 00-.372.375zm0 6.437c-.398.588-1.195 1.096-2.151 1.096-1.699 0-3-1.069-3-2.886 0-1.816 1.301-2.885 3-2.885.93 0 1.78.535 2.151 1.096v3.58zm4.116-6.812h2.549v10.045h-2.549V9.83zm38.078-.267c-1.752 0-2.576 1.069-2.576 1.069V4.996h-2.549v14.879h2.151a.38.38 0 00.372-.375v-.453s.823 1.095 2.575 1.095c2.895 0 5.152-2.244 5.152-5.289 0-3.045-2.257-5.29-5.125-5.29zm-.425 8.148c-.982 0-1.752-.507-2.151-1.095v-3.58c.399-.534 1.248-1.095 2.151-1.095 1.7 0 3.001 1.068 3.001 2.885 0 1.816-1.301 2.885-3.001 2.885zm-6.027-3.793V19.9h-2.55v-5.69c0-1.655-.531-2.324-1.964-2.324-.769 0-1.566.401-2.072.989v6.999h-2.548V9.83h2.017a.38.38 0 01.372.374v.427c.744-.775 1.726-1.069 2.708-1.069 1.116 0 2.045.321 2.789.962.902.748 1.248 1.71 1.248 3.393zm-15.322-4.355c-1.752 0-2.576 1.069-2.576 1.069V4.996h-2.549v14.879h2.151a.382.382 0 00.372-.375v-.453s.823 1.095 2.575 1.095c2.895 0 5.152-2.244 5.152-5.289.026-3.046-2.231-5.29-5.125-5.29zm-.425 8.148c-.982 0-1.752-.507-2.151-1.095v-3.58c.399-.534 1.248-1.095 2.151-1.095 1.7 0 3.001 1.068 3.001 2.885 0 1.816-1.301 2.885-3.001 2.885zm-6.904-8.148c.77 0 1.168.134 1.168.134v2.377s-2.124-.721-3.451.802V19.9h-2.55V9.831h2.151a.38.38 0 01.372.373v.428c.478-.561 1.514-1.069 2.31-1.069zm-26.474 9.403c-.132-.32-.265-.668-.398-.962-.213-.48-.425-.935-.611-1.362l-.026-.026a279.197 279.197 0 00-5.869-12.074l-.079-.16a49.72 49.72 0 01-.637-1.256c-.266-.481-.531-.988-.956-1.47C573.473.588 572.251 0 570.951 0c-1.328 0-2.523.588-3.399 1.603-.399.48-.691.988-.956 1.469-.207.421-.42.84-.637 1.256l-.08.16c-2.045 4.007-4.036 8.067-5.868 12.074l-.027.053c-.186.428-.399.882-.611 1.362a17.77 17.77 0 00-.398.962c-.345.988-.452 1.923-.319 2.885a5.674 5.674 0 003.452 4.434 5.425 5.425 0 002.151.428 6.983 6.983 0 003.346-.961c1.089-.615 2.125-1.496 3.293-2.778 1.168 1.282 2.23 2.163 3.293 2.778a6.983 6.983 0 003.346.961c.743 0 1.487-.133 2.15-.427 1.859-.749 3.16-2.458 3.453-4.435.21-.935.104-1.87-.241-2.858zm-11.975 1.39c-1.434-1.817-2.364-3.527-2.682-4.969-.133-.614-.16-1.149-.08-1.63a2.61 2.61 0 01.425-1.122c.505-.72 1.354-1.175 2.337-1.175.983 0 1.859.428 2.337 1.175.213.32.372.695.425 1.123.08.48.053 1.041-.08 1.63-.319 1.414-1.249 3.124-2.682 4.967zm10.594 1.255a3.964 3.964 0 01-2.416 3.125 3.99 3.99 0 01-2.018.267 5.208 5.208 0 01-2.018-.694c-.956-.535-1.912-1.362-3.027-2.591 1.752-2.164 2.814-4.141 3.213-5.904a6.725 6.725 0 00.133-2.27 4.358 4.358 0 00-.717-1.817c-.824-1.203-2.205-1.897-3.745-1.897-1.539 0-2.92.722-3.743 1.897a4.345 4.345 0 00-.717 1.816 5.59 5.59 0 00.132 2.271c.398 1.763 1.487 3.767 3.213 5.93-1.089 1.229-2.071 2.057-3.027 2.592a5.21 5.21 0 01-2.018.694 4.224 4.224 0 01-2.018-.267 3.965 3.965 0 01-2.416-3.126 4.436 4.436 0 01.239-2.083c.079-.267.212-.534.345-.855.186-.427.398-.882.611-1.336l.026-.053c1.832-3.98 3.797-8.04 5.842-11.993l.079-.161c.213-.4.426-.828.638-1.229a5.86 5.86 0 01.743-1.175c.558-.64 1.301-.989 2.125-.989.823 0 1.567.348 2.124.989.292.348.531.749.744 1.175.212.401.425.829.637 1.229l.08.16a355.674 355.674 0 015.815 12.021v.027c.213.428.398.908.611 1.336.133.32.265.587.345.854.212.694.292 1.362.185 2.057zM705.776 5.343h2.884v9.352c0 4.92-3.075 6.648-7.537 6.648-4.446 0-7.522-1.727-7.522-6.648V5.718c0-.26.127-.375.382-.375h2.885v9.206c0 2.949 1.275 4.17 4.255 4.17 2.996 0 4.271-1.221 4.271-4.17V5.718c0-.26.127-.375.382-.375zm32.653 2.558v3.943h7.298c.128 0 .176.065.128.196l-.797 2.02c-.08.18-.191.26-.43.26h-4.287c-1.402 0-1.912.44-1.912 1.402v2.786h9.88c.127 0 .175.065.127.195l-.828 2.102c-.08.18-.191.261-.43.261h-10.821c-.829 0-1.147-.293-1.147-.929V6.435c0-.766.414-1.092 1.498-1.092h11.601c.127 0 .175.065.127.18l-.828 2.117c-.08.18-.191.261-.43.261h-8.749zm-9.163 8.815c0 3.144-2.168 4.35-5.211 4.35h-8.064c-.845 0-1.147-.293-1.147-.929V6.435c0-.766.398-1.092 1.498-1.092h6.549c2.869 0 5.642.505 5.642 3.992 0 1.499-.526 2.77-1.785 3.438 1.737.472 2.518 2.069 2.518 3.943zm-11.251-4.823h5.115c1.689 0 2.168-.668 2.168-2.037 0-1.368-.479-2.02-2.168-2.02h-5.115v4.057zm8.016 4.53c0-1.45-.494-2.168-2.311-2.168h-3.777c-1.402 0-1.928.44-1.928 1.402v2.916h5.705c1.817 0 2.311-.717 2.311-2.15zm42.389 4.643h-2.932c-.239 0-.335-.098-.43-.26l-3.108-5.736h-2.852c-1.403 0-1.929.44-1.929 1.401v4.595h-2.804c-.255 0-.383-.13-.383-.375V6.435c0-.766.415-1.092 1.498-1.092h6.582c3.84 0 6.151 1.026 6.151 4.84 0 2.948-1.386 4.105-3.108 4.561l3.459 6.045c.063.098.063.277-.144.277zm-3.442-10.819c0-1.596-.43-2.379-2.438-2.379h-5.371v4.758h5.371c2.008 0 2.438-.766 2.438-2.379z" fill="#718087"/></svg>